<?xml version="1.0" standalone="no"?>
<!DOCTYPE svg PUBLIC "-//W3C//DTD SVG 20010904//EN"
 "http://www.w3.org/TR/2001/REC-SVG-20010904/DTD/svg10.dtd">
<svg version="1.0" xmlns="http://www.w3.org/2000/svg"
 width="16.000000pt" height="16.000000pt" viewBox="0 0 16.000000 16.000000"
 preserveAspectRatio="xMidYMid meet">
<metadata>
Created by potrace 1.11, written by Peter Selinger 2001-2013
</metadata>
<g transform="translate(0.000000,16.000000) scale(0.005654,-0.005654)"
fill="#000000" stroke="none">
<path d="M1014 2775 c0 -38 4 -55 13 -55 7 0 13 9 13 19 0 11 6 21 13 24 13 5
67 -23 67 -35 0 -4 12 -8 27 -8 28 0 28 0 -10 27 -20 14 -37 30 -37 34 0 5 15
16 33 26 24 13 28 18 15 21 -10 2 -38 -9 -63 -23 l-45 -27 0 26 c0 14 -6 26
-13 26 -8 0 -12 -18 -13 -55z"/>
<path d="M1181 2776 c0 -62 5 -64 87 -57 61 5 52 21 -12 21 l-54 0 1 42 c1 24
-3 43 -10 45 -8 3 -12 -13 -12 -51z"/>
<path d="M1323 2786 c1 -25 8 -51 13 -56 13 -13 113 -16 124 -3 16 16 16 103
0 103 -5 0 -10 -20 -10 -45 l0 -45 -50 0 c-33 0 -50 4 -51 13 -1 6 -2 25 -3
41 0 16 -7 31 -14 34 -9 3 -11 -9 -9 -42z"/>
<path d="M1500 2775 c0 -61 -3 -60 95 -55 46 2 53 9 50 54 -3 51 -11 56 -81
56 l-64 0 0 -55z m120 25 c0 -5 -22 -10 -50 -10 -27 0 -50 5 -50 10 0 6 23 10
50 10 28 0 50 -4 50 -10z m-2 -47 c2 -9 -11 -13 -47 -13 -37 0 -51 4 -51 14 0
18 91 17 98 -1z"/>
<path d="M1670 2775 c0 -61 -3 -58 80 -55 56 2 67 11 65 54 -3 51 -10 56 -81
56 l-64 0 0 -55z m120 25 c0 -5 -22 -10 -50 -10 -27 0 -50 5 -50 10 0 6 23 10
50 10 28 0 50 -4 50 -10z m-2 -47 c2 -9 -11 -13 -47 -13 -48 0 -61 7 -44 24
12 11 86 2 91 -11z"/>
<path d="M4 2636 c-11 -43 121 -495 252 -865 61 -172 158 -415 210 -529 19
-41 34 -75 34 -78 0 -2 35 -75 78 -162 186 -373 363 -634 568 -837 217 -215
310 -215 528 0 405 399 786 1176 1079 2200 76 263 80 295 39 295 -29 0 -37
-15 -72 -140 -166 -604 -518 -1390 -847 -1895 -176 -269 -330 -413 -451 -419
-194 -11 -449 304 -796 988 -61 122 -125 250 -140 286 -16 36 -42 94 -59 130
-60 132 -161 390 -218 560 -53 157 -78 238 -133 433 -14 49 -20 57 -41 57 -18
0 -26 -7 -31 -24z m191 -501 c81 -239 234 -604 353 -842 324 -648 554 -981
748 -1082 70 -36 159 -35 231 2 205 106 483 526 818 1232 28 61 80 179 115
263 35 83 65 151 66 149 2 -1 -13 -45 -32 -97 -20 -52 -41 -113 -49 -135 -26
-81 -149 -355 -239 -535 -235 -470 -485 -816 -685 -949 -46 -31 -63 -36 -110
-36 -50 0 -64 5 -127 47 -323 215 -777 1008 -1062 1853 -34 100 -72 228 -72
240 0 17 9 -4 45 -110z m2342 -257 c-3 -8 -6 -5 -6 6 -1 11 2 17 5 13 3 -3 4
-12 1 -19z"/>
<path d="M1475 2613 c-79 -17 -141 -61 -166 -119 -30 -66 -2 -114 66 -114 37
0 95 59 95 97 0 15 -4 33 -8 40 -12 19 -57 -27 -60 -61 -4 -50 -41 -73 -70
-44 -30 30 -4 93 52 127 66 41 190 50 203 14 6 -15 -39 -61 -59 -60 -42 1 -48
-3 -48 -37 0 -28 -8 -41 -42 -71 -50 -42 -81 -52 -119 -38 -23 9 -31 7 -54
-13 -33 -28 -27 -40 25 -49 59 -10 102 9 159 70 52 57 58 60 78 47 9 -5 3 -21
-19 -55 -42 -65 -30 -77 54 -56 51 14 65 14 86 3 43 -22 106 3 133 52 13 25
56 50 67 40 2 -3 -13 -25 -33 -50 -32 -39 -35 -46 -19 -47 11 -1 26 -2 34 -3
8 0 34 23 58 52 26 31 51 52 63 52 20 0 20 -1 -3 -31 -55 -74 -54 -69 -15 -69
28 0 40 7 61 34 39 52 56 66 77 66 18 0 17 -4 -12 -39 -17 -22 -28 -44 -24
-50 9 -15 55 -14 102 3 33 12 42 12 58 0 24 -18 51 -18 108 2 42 14 48 14 71
-1 17 -11 35 -15 54 -10 29 6 92 56 92 73 0 5 18 12 40 16 25 4 43 14 50 26
14 27 -3 26 -40 0 l-29 -20 -24 26 c-22 23 -31 26 -63 21 -41 -7 -94 -51 -94
-78 0 -26 -90 -53 -104 -31 -3 5 15 23 39 40 67 47 55 87 -19 62 -31 -10 -88
-62 -97 -88 -4 -11 -59 -25 -59 -15 0 3 11 21 25 39 45 58 25 84 -45 60 -22
-8 -40 -10 -40 -5 0 12 -53 11 -87 -2 -19 -7 -29 -7 -31 0 -5 15 -42 14 -92
-4 -39 -14 -45 -14 -61 1 -41 37 -119 11 -154 -52 -15 -27 -29 -40 -48 -42
l-26 -3 16 41 c10 25 29 48 50 61 49 31 73 91 52 131 -7 13 -7 23 0 32 9 10 5
13 -16 13 -16 0 -46 6 -68 12 -40 11 -83 12 -120 4z m145 -117 c0 -13 -7 -29
-15 -36 -13 -11 -18 -10 -30 6 -12 17 -11 22 7 41 24 26 38 22 38 -11z m-100
-30 c0 -3 -4 -8 -10 -11 -5 -3 -10 -1 -10 4 0 6 5 11 10 11 6 0 10 -2 10 -4z
m25 -26 c3 -5 -1 -10 -10 -10 -9 0 -13 5 -10 10 3 6 8 10 10 10 2 0 7 -4 10
-10z m765 -28 c0 -14 -49 -56 -57 -49 -3 4 4 18 17 32 24 25 40 32 40 17z
m177 -27 c-9 -8 -14 -22 -11 -29 3 -8 -3 -16 -15 -19 -39 -10 -34 49 7 72 24
14 38 -4 19 -24z m-714 19 c3 -3 2 -14 -3 -23 -5 -9 -11 -24 -14 -33 -8 -27
-46 -23 -46 4 0 36 43 72 63 52z"/>
<path d="M530 2563 c-78 -28 -174 -94 -214 -146 -69 -90 -16 -171 85 -131 35
15 40 15 54 0 16 -16 37 -15 90 4 12 4 29 2 41 -6 17 -12 29 -12 75 0 30 8 56
13 58 11 2 -2 -20 -29 -49 -59 -65 -69 -117 -89 -162 -63 -28 16 -48 15 -48
-2 0 -16 68 -41 109 -41 75 0 116 26 204 129 31 37 44 45 78 48 25 2 46 -2 54
-11 17 -17 231 -20 277 -4 38 14 62 51 54 84 -9 35 -32 24 -29 -14 2 -22 -3
-35 -19 -46 -24 -17 -88 -22 -88 -7 0 6 18 31 40 56 22 26 38 50 35 54 -2 5
-22 5 -42 1 -21 -3 -50 -3 -66 1 -43 12 -97 -9 -145 -56 -30 -30 -49 -41 -63
-38 -19 5 -19 7 4 37 14 17 48 45 77 62 29 17 70 48 92 69 62 63 43 99 -29 55
-32 -19 -181 -155 -196 -178 -6 -8 -13 -9 -26 -2 -23 12 -45 -9 -35 -33 4 -12
-3 -17 -31 -23 -20 -3 -39 -4 -42 0 -14 13 65 97 120 126 70 38 129 94 121
115 -18 46 -116 -12 -239 -140 -94 -98 -125 -121 -125 -94 0 11 85 121 133
174 10 11 28 32 39 48 l19 27 -40 0 c-22 0 -43 -5 -46 -10 -4 -7 -12 -7 -25 0
-20 11 -75 12 -100 3z m88 -33 c2 -15 -103 -151 -137 -177 -9 -7 -30 -13 -48
-13 -35 0 -49 23 -38 63 24 78 212 186 223 127z m251 -7 c-27 -34 -44 -50 -74
-69 -30 -18 -30 -18 -16 1 32 43 76 85 89 85 12 0 12 -3 1 -17z m161 8 c0 -14
-79 -91 -92 -91 -11 0 24 44 65 83 22 19 27 21 27 8z m40 -138 c0 -23 -59 -83
-82 -83 -30 0 -22 45 13 74 35 30 69 34 69 9z"/>
<path d="M1224 2110 c-43 -9 -49 -15 -52 -47 -4 -49 18 -67 78 -64 64 2 80 13
80 56 0 49 -39 69 -106 55z m82 -44 c9 -36 -2 -46 -49 -46 -43 0 -70 11 -67
26 7 33 23 44 65 44 39 0 45 -3 51 -24z"/>
<path d="M1362 2101 c-5 -13 -6 -38 -3 -86 1 -23 21 -18 21 5 0 15 7 20 28 20
16 0 38 -9 50 -20 12 -11 29 -20 38 -20 16 0 16 1 0 19 -11 12 -14 21 -7 26
15 9 14 55 -1 60 -7 2 -37 6 -67 8 -40 2 -54 0 -59 -12z m116 -28 c2 -9 -11
-13 -47 -13 -39 0 -51 4 -51 16 0 12 10 14 47 12 26 -2 48 -9 51 -15z"/>
<path d="M1546 2105 c-14 -7 -22 -22 -24 -46 -5 -56 12 -64 120 -60 23 1 27 5
25 29 -3 35 -9 39 -52 34 -38 -5 -38 -22 1 -22 13 0 24 -4 24 -10 0 -13 -87
-13 -95 1 -4 5 -4 21 -1 35 6 22 11 24 61 24 37 0 55 4 55 13 0 15 -84 17
-114 2z"/>
<path d="M1713 2112 c-21 -3 -23 -9 -23 -58 0 -60 -2 -58 85 -55 64 2 67 21 3
21 -40 0 -57 4 -62 15 -4 12 4 15 44 15 28 0 50 5 50 10 0 6 -23 10 -51 10
-31 0 -48 4 -44 10 3 6 28 10 56 10 27 0 49 5 49 10 0 6 -8 10 -17 11 -10 0
-29 1 -43 2 -14 1 -35 1 -47 -1z"/>
<path d="M1009 2095 c-5 -60 1 -106 11 -100 6 3 10 24 10 47 l0 41 45 -42 c62
-57 75 -55 75 14 0 41 -4 55 -14 55 -10 0 -14 -10 -12 -32 5 -50 -2 -51 -47
-8 -44 42 -66 50 -68 25z"/>
<path d="M1295 1741 c-9 -16 3 -31 26 -31 14 0 19 6 17 17 -4 20 -33 29 -43
14z"/>
<path d="M1370 1730 c0 -13 7 -20 20 -20 13 0 20 7 20 20 0 13 -7 20 -20 20
-13 0 -20 -7 -20 -20z"/>
<path d="M1440 1730 c0 -23 35 -28 43 -6 7 18 -1 26 -25 26 -11 0 -18 -7 -18
-20z"/>
<path d="M1303 1693 c-7 -3 -9 -11 -6 -19 4 -11 26 -14 94 -14 53 0 89 4 89
10 0 6 0 13 0 17 0 8 -156 13 -177 6z"/>
<path d="M1547 1655 c-16 -22 -25 -25 -87 -25 -63 0 -72 -3 -95 -27 -20 -22
-35 -28 -73 -30 -26 -1 -57 -2 -69 -2 -30 -1 -29 -12 5 -47 27 -28 32 -29 115
-29 58 0 87 -4 87 -11 0 -8 -30 -12 -92 -12 -90 0 -93 0 -120 -31 -30 -34 -35
-50 -15 -52 6 0 75 -1 152 -1 145 0 175 -7 175 -36 0 -36 -21 -42 -134 -42
-91 0 -117 -4 -154 -21 -62 -30 -95 -85 -100 -163 -3 -54 0 -66 26 -107 46
-72 92 -89 235 -89 71 0 117 -4 117 -10 0 -6 -44 -10 -112 -10 -133 0 -171
-14 -205 -74 -16 -29 -20 -50 -17 -80 10 -81 64 -126 154 -126 76 0 97 -8 110
-39 12 -31 -1 -81 -21 -81 -7 0 -10 -3 -7 -6 10 -9 77 24 103 52 19 21 25 38
25 75 0 40 -5 52 -31 78 -17 17 -36 31 -42 32 -7 1 -43 2 -82 4 -87 3 -87 3
-81 13 2 4 53 7 113 6 156 -1 207 20 244 101 38 81 12 169 -63 218 -44 29 -50
29 -195 28 -51 0 -95 4 -98 9 -4 6 14 10 42 10 118 1 191 9 225 23 88 37 164
143 172 240 8 98 -46 208 -130 261 -50 32 -54 32 -77 1z"/>
<path d="M1050 1621 c0 -5 9 -15 19 -22 10 -8 22 -30 25 -50 l6 -36 -42 1
c-41 1 -43 0 -43 -29 0 -29 1 -30 44 -28 l43 2 -7 -37 c-4 -22 -17 -46 -33
-59 l-27 -22 31 -1 c34 0 49 14 79 73 11 21 28 45 37 54 16 14 16 16 0 33 -9
10 -26 36 -37 57 -10 21 -26 46 -34 56 -14 17 -61 24 -61 8z"/>
</g>
</svg>
